<mxfile host="app.diagrams.net" agent="Mozilla/5.0 (Windows NT 10.0; Win64; x64) AppleWebKit/537.36 (KHTML, like Gecko) Chrome/132.0.0.0 Safari/537.36" version="26.0.14">
  <diagram id="Ht1M8jgEwFfnCIfOTk4-" name="Page-1">
    <mxGraphModel dx="2849" dy="827" grid="1" gridSize="10" guides="1" tooltips="1" connect="1" arrows="1" fold="1" page="1" pageScale="1" pageWidth="1169" pageHeight="827" math="0" shadow="0">
      <root>
        <mxCell id="0" />
        <mxCell id="1" parent="0" />
        <mxCell id="eGmTyfLbr0HrrhSvrxwE-3" value="AWS Cloud" style="points=[[0,0],[0.25,0],[0.5,0],[0.75,0],[1,0],[1,0.25],[1,0.5],[1,0.75],[1,1],[0.75,1],[0.5,1],[0.25,1],[0,1],[0,0.75],[0,0.5],[0,0.25]];outlineConnect=0;gradientColor=none;html=1;whiteSpace=wrap;fontSize=21;fontStyle=1;container=1;pointerEvents=0;collapsible=0;recursiveResize=0;shape=mxgraph.aws4.group;grIcon=mxgraph.aws4.group_aws_cloud_alt;strokeColor=#232F3E;fillColor=none;verticalAlign=top;align=left;spacingLeft=30;fontColor=#232F3E;dashed=0;" vertex="1" parent="1">
          <mxGeometry x="-100" y="190" width="1200" height="400" as="geometry" />
        </mxCell>
        <mxCell id="eGmTyfLbr0HrrhSvrxwE-1" value="EC2 instance" style="points=[[0,0],[0.25,0],[0.5,0],[0.75,0],[1,0],[1,0.25],[1,0.5],[1,0.75],[1,1],[0.75,1],[0.5,1],[0.25,1],[0,1],[0,0.75],[0,0.5],[0,0.25]];outlineConnect=0;gradientColor=none;html=1;whiteSpace=wrap;fontSize=15;fontStyle=1;container=1;pointerEvents=0;collapsible=0;recursiveResize=0;shape=mxgraph.aws4.group;grIcon=mxgraph.aws4.group_ec2_instance_contents;strokeColor=#D86613;fillColor=none;verticalAlign=top;align=left;spacingLeft=30;fontColor=#D86613;dashed=0;" vertex="1" parent="eGmTyfLbr0HrrhSvrxwE-3">
          <mxGeometry x="670" y="80" width="330" height="260" as="geometry" />
        </mxCell>
        <mxCell id="eGmTyfLbr0HrrhSvrxwE-4" value="PostgreSQL Database" style="rounded=1;arcSize=10;dashed=1;strokeColor=light-dark(#c925d1, #9577a3);fillColor=none;dashPattern=8 4;strokeWidth=2;align=center;verticalAlign=top;fontStyle=1;fontSize=15;" vertex="1" parent="eGmTyfLbr0HrrhSvrxwE-3">
          <mxGeometry x="680" y="120" width="300" height="199.5" as="geometry" />
        </mxCell>
        <mxCell id="eGmTyfLbr0HrrhSvrxwE-2" value="" style="sketch=0;outlineConnect=0;fontColor=#232F3E;gradientColor=none;fillColor=#C925D1;strokeColor=none;dashed=0;verticalLabelPosition=bottom;verticalAlign=top;align=center;html=1;fontSize=15;fontStyle=0;aspect=fixed;pointerEvents=1;shape=mxgraph.aws4.rds_postgresql_instance;" vertex="1" parent="eGmTyfLbr0HrrhSvrxwE-3">
          <mxGeometry x="690" y="130" width="40" height="40" as="geometry" />
        </mxCell>
        <mxCell id="eGmTyfLbr0HrrhSvrxwE-5" value="listening_history" style="sketch=0;outlineConnect=0;fontColor=#232F3E;gradientColor=none;fillColor=#C925D1;strokeColor=none;dashed=0;verticalLabelPosition=bottom;verticalAlign=top;align=center;html=1;fontSize=15;fontStyle=0;aspect=fixed;pointerEvents=1;shape=mxgraph.aws4.table;" vertex="1" parent="eGmTyfLbr0HrrhSvrxwE-3">
          <mxGeometry x="880" y="220" width="54" height="54" as="geometry" />
        </mxCell>
        <mxCell id="eGmTyfLbr0HrrhSvrxwE-6" value="track_features" style="sketch=0;outlineConnect=0;fontColor=#232F3E;gradientColor=none;fillColor=#C925D1;strokeColor=none;dashed=0;verticalLabelPosition=bottom;verticalAlign=top;align=center;html=1;fontSize=15;fontStyle=0;aspect=fixed;pointerEvents=1;shape=mxgraph.aws4.table;" vertex="1" parent="eGmTyfLbr0HrrhSvrxwE-3">
          <mxGeometry x="746" y="220" width="54" height="54" as="geometry" />
        </mxCell>
        <mxCell id="eGmTyfLbr0HrrhSvrxwE-15" style="edgeStyle=orthogonalEdgeStyle;rounded=0;orthogonalLoop=1;jettySize=auto;html=1;exitX=1;exitY=0.5;exitDx=0;exitDy=0;exitPerimeter=0;fontSize=15;" edge="1" parent="eGmTyfLbr0HrrhSvrxwE-3" source="eGmTyfLbr0HrrhSvrxwE-18" target="eGmTyfLbr0HrrhSvrxwE-6">
          <mxGeometry relative="1" as="geometry">
            <mxPoint x="599.999112850026" y="207" as="sourcePoint" />
            <Array as="points">
              <mxPoint x="770" y="201" />
            </Array>
          </mxGeometry>
        </mxCell>
        <mxCell id="eGmTyfLbr0HrrhSvrxwE-17" value="Insert" style="edgeStyle=orthogonalEdgeStyle;rounded=0;orthogonalLoop=1;jettySize=auto;html=1;fontSize=15;exitX=1;exitY=0.5;exitDx=0;exitDy=0;exitPerimeter=0;fontStyle=1" edge="1" parent="eGmTyfLbr0HrrhSvrxwE-3" source="eGmTyfLbr0HrrhSvrxwE-18" target="eGmTyfLbr0HrrhSvrxwE-5">
          <mxGeometry x="-0.6891" relative="1" as="geometry">
            <mxPoint x="599.999112850026" y="207" as="sourcePoint" />
            <Array as="points">
              <mxPoint x="907" y="201" />
            </Array>
            <mxPoint as="offset" />
          </mxGeometry>
        </mxCell>
        <mxCell id="eGmTyfLbr0HrrhSvrxwE-18" value="Lambda Function" style="sketch=0;points=[[0,0,0],[0.25,0,0],[0.5,0,0],[0.75,0,0],[1,0,0],[0,1,0],[0.25,1,0],[0.5,1,0],[0.75,1,0],[1,1,0],[0,0.25,0],[0,0.5,0],[0,0.75,0],[1,0.25,0],[1,0.5,0],[1,0.75,0]];outlineConnect=0;fontColor=#232F3E;fillColor=#ED7100;strokeColor=#ffffff;dashed=0;verticalLabelPosition=bottom;verticalAlign=top;align=center;html=1;fontSize=15;fontStyle=1;aspect=fixed;shape=mxgraph.aws4.resourceIcon;resIcon=mxgraph.aws4.lambda;" vertex="1" parent="eGmTyfLbr0HrrhSvrxwE-3">
          <mxGeometry x="462" y="163" width="78" height="78" as="geometry" />
        </mxCell>
        <mxCell id="eGmTyfLbr0HrrhSvrxwE-19" style="edgeStyle=orthogonalEdgeStyle;rounded=0;orthogonalLoop=1;jettySize=auto;html=1;entryX=0;entryY=0.5;entryDx=0;entryDy=0;entryPerimeter=0;fontSize=15;" edge="1" parent="eGmTyfLbr0HrrhSvrxwE-3" source="UEzPUAAOIrF-is8g5C7q-121" target="eGmTyfLbr0HrrhSvrxwE-18">
          <mxGeometry relative="1" as="geometry">
            <Array as="points">
              <mxPoint x="380" y="201" />
              <mxPoint x="380" y="201" />
            </Array>
          </mxGeometry>
        </mxCell>
        <mxCell id="eGmTyfLbr0HrrhSvrxwE-20" value="Created by Terraform" style="swimlane;whiteSpace=wrap;html=1;dashed=1;strokeWidth=4;fontSize=15;" vertex="1" parent="eGmTyfLbr0HrrhSvrxwE-3">
          <mxGeometry x="200" y="17" width="962" height="357" as="geometry">
            <mxRectangle x="18" y="43" width="150" height="30" as="alternateBounds" />
          </mxGeometry>
        </mxCell>
        <mxCell id="UEzPUAAOIrF-is8g5C7q-121" value="Amazon&lt;br&gt;CloudWatch&lt;br&gt;&lt;div&gt;Scheduler&lt;/div&gt;&lt;div&gt;Rate: 1 hour&lt;/div&gt;" style="outlineConnect=0;fontColor=#232F3E;gradientColor=#F34482;gradientDirection=north;fillColor=#BC1356;strokeColor=#ffffff;dashed=0;verticalLabelPosition=bottom;verticalAlign=top;align=center;html=1;fontSize=15;fontStyle=1;aspect=fixed;shape=mxgraph.aws4.resourceIcon;resIcon=mxgraph.aws4.cloudwatch;labelBackgroundColor=#ffffff;" parent="eGmTyfLbr0HrrhSvrxwE-20" vertex="1">
          <mxGeometry x="72.00000000000023" y="152" width="78" height="78" as="geometry" />
        </mxCell>
        <mxCell id="eGmTyfLbr0HrrhSvrxwE-23" value="" style="shape=image;verticalLabelPosition=bottom;labelBackgroundColor=default;verticalAlign=top;aspect=fixed;imageAspect=0;image=https://static-00.iconduck.com/assets.00/terraform-icon-1803x2048-hodrzd3t.png;fontSize=15;" vertex="1" parent="eGmTyfLbr0HrrhSvrxwE-20">
          <mxGeometry x="20" y="40" width="61.6" height="70" as="geometry" />
        </mxCell>
        <mxCell id="eGmTyfLbr0HrrhSvrxwE-21" value="AWS Secrets Manger" style="sketch=0;points=[[0,0,0],[0.25,0,0],[0.5,0,0],[0.75,0,0],[1,0,0],[0,1,0],[0.25,1,0],[0.5,1,0],[0.75,1,0],[1,1,0],[0,0.25,0],[0,0.5,0],[0,0.75,0],[1,0.25,0],[1,0.5,0],[1,0.75,0]];outlineConnect=0;fontColor=#232F3E;fillColor=#DD344C;strokeColor=#ffffff;dashed=0;verticalLabelPosition=bottom;verticalAlign=top;align=center;html=1;fontSize=15;fontStyle=1;aspect=fixed;shape=mxgraph.aws4.resourceIcon;resIcon=mxgraph.aws4.secrets_manager;" vertex="1" parent="eGmTyfLbr0HrrhSvrxwE-3">
          <mxGeometry x="60" y="166" width="80" height="80" as="geometry" />
        </mxCell>
        <mxCell id="eGmTyfLbr0HrrhSvrxwE-27" style="edgeStyle=orthogonalEdgeStyle;rounded=0;orthogonalLoop=1;jettySize=auto;html=1;entryX=0;entryY=0.5;entryDx=0;entryDy=0;entryPerimeter=0;fontSize=15;" edge="1" parent="eGmTyfLbr0HrrhSvrxwE-3" target="eGmTyfLbr0HrrhSvrxwE-18">
          <mxGeometry relative="1" as="geometry">
            <mxPoint x="100" y="270" as="sourcePoint" />
            <Array as="points">
              <mxPoint x="100" y="330" />
              <mxPoint x="410" y="330" />
              <mxPoint x="410" y="201" />
            </Array>
          </mxGeometry>
        </mxCell>
        <mxCell id="eGmTyfLbr0HrrhSvrxwE-28" style="edgeStyle=orthogonalEdgeStyle;rounded=0;orthogonalLoop=1;jettySize=auto;html=1;strokeWidth=4;fontSize=15;startArrow=classic;startFill=1;" edge="1" parent="1" source="eGmTyfLbr0HrrhSvrxwE-26">
          <mxGeometry relative="1" as="geometry">
            <mxPoint x="402" y="474" as="targetPoint" />
          </mxGeometry>
        </mxCell>
        <mxCell id="eGmTyfLbr0HrrhSvrxwE-26" value="Spotify API" style="shape=image;verticalLabelPosition=bottom;labelBackgroundColor=default;verticalAlign=top;aspect=fixed;imageAspect=0;image=https://upload.wikimedia.org/wikipedia/commons/thumb/8/84/Spotify_icon.svg/1982px-Spotify_icon.svg.png;fontSize=20;fontStyle=1" vertex="1" parent="1">
          <mxGeometry x="331" y="634" width="142" height="146.64" as="geometry" />
        </mxCell>
      </root>
    </mxGraphModel>
  </diagram>
</mxfile>
